<?xml version="1.0" standalone="no"?>
<!DOCTYPE svg PUBLIC "-//W3C//DTD SVG 20010904//EN"
 "http://www.w3.org/TR/2001/REC-SVG-20010904/DTD/svg10.dtd">
<svg version="1.0" xmlns="http://www.w3.org/2000/svg"
 width="221.000000pt" height="221.000000pt" viewBox="0 0 221.000000 221.000000"
 preserveAspectRatio="xMidYMid meet">
<metadata>
Created by potrace 1.14, written by Peter Selinger 2001-2017
</metadata>
<g transform="translate(0.000000,221.000000) scale(0.100000,-0.100000)"
fill="#000000" stroke="none">
<path d="M938 1591 c-76 -76 -138 -142 -138 -145 0 -3 13 -6 28 -6 23 0 55 26
167 135 76 75 135 138 133 141 -3 2 -16 7 -28 9 -19 4 -49 -21 -162 -134z"/>
<path d="M920 1699 c-25 -10 -260 -237 -260 -251 0 -5 13 -8 30 -8 25 0 49 20
145 117 159 161 152 153 129 152 -10 0 -30 -5 -44 -10z"/>
<path d="M1075 1583 c-69 -69 -125 -130 -125 -134 0 -4 14 -6 30 -5 25 2 56
27 155 126 68 68 122 127 119 132 -3 4 -16 8 -29 8 -18 0 -58 -34 -150 -127z"/>
<path d="M1200 1565 c-63 -63 -114 -120 -113 -125 2 -6 -4 -10 -12 -10 -8 0
-15 -4 -15 -10 0 -5 8 -10 17 -10 9 0 14 -3 11 -6 -3 -3 -28 1 -55 9 -36 11
-101 14 -256 13 -114 0 -207 1 -207 4 1 3 41 45 90 95 92 92 108 119 43 70
-49 -38 -100 -92 -129 -137 -17 -27 -31 -38 -49 -38 -13 0 -54 -10 -90 -22
-114 -37 -212 -152 -230 -269 -11 -65 -12 -83 -6 -93 2 -6 5 -24 7 -41 3 -49
53 -142 100 -185 34 -31 136 -94 146 -89 2 0 19 -2 38 -5 19 -3 61 -7 93 -10
58 -3 92 -16 45 -16 -31 0 -45 -28 -24 -49 14 -13 18 -12 40 14 13 15 22 33
20 40 -4 9 33 11 143 10 89 0 171 4 207 12 42 10 62 10 71 3 9 -8 103 -10 292
-8 l278 3 73 34 c74 35 145 98 176 158 78 153 24 363 -120 463 -40 29 -121 57
-182 64 -41 4 -50 12 -23 21 12 3 21 10 21 15 0 18 -13 40 -22 40 -16 0 -57
-52 -51 -65 3 -9 -10 -13 -44 -12 -65 0 -68 4 -31 35 18 15 45 40 60 57 25 27
26 31 11 43 -9 6 -20 12 -23 12 -13 0 -131 -130 -126 -138 3 -4 -15 -8 -40 -8
-24 0 -44 2 -44 6 0 3 36 41 80 84 82 80 93 99 63 110 -12 5 -42 -18 -110 -86
-51 -51 -91 -99 -88 -105 3 -10 -10 -13 -49 -13 l-53 0 114 112 c62 62 112
117 110 123 -2 5 -12 11 -23 13 -14 2 -54 -32 -134 -113z m-59 -192 l24 -26
-32 23 c-34 25 -39 30 -25 30 5 0 19 -12 33 -27z m54 -43 c10 -11 16 -20 13
-20 -3 0 -13 9 -23 20 -10 11 -16 20 -13 20 3 0 13 -9 23 -20z"/>
<path d="M747 681 c-26 -18 -87 -82 -87 -92 0 -4 6 -12 14 -18 11 -9 26 0 75
47 34 33 61 62 61 64 0 14 -41 14 -63 -1z"/>
<path d="M822 616 c-81 -79 -95 -106 -54 -106 18 0 182 160 182 176 0 6 -10
10 -22 11 -15 2 -48 -23 -106 -81z"/>
<path d="M938 591 c-60 -58 -108 -108 -108 -112 0 -4 10 -11 21 -14 18 -6 41
13 135 106 63 63 114 116 114 119 0 3 -12 6 -27 6 -22 0 -51 -23 -135 -105z"/>
<path d="M1058 569 c-69 -70 -124 -130 -120 -133 21 -22 57 2 166 111 137 136
145 148 108 149 -22 1 -52 -24 -154 -127z"/>
<path d="M1198 565 c-71 -72 -128 -134 -127 -140 0 -5 12 -8 26 -7 19 3 66 44
155 134 70 71 128 132 128 136 0 4 -12 7 -27 7 -23 0 -53 -26 -155 -130z"/>
<path d="M1344 568 c-74 -73 -134 -135 -134 -139 0 -4 17 -3 38 3 27 7 67 40
155 128 111 111 130 140 90 140 -9 0 -76 -59 -149 -132z"/>
<path d="M1521 609 c-46 -49 -80 -89 -76 -89 23 0 185 151 185 172 0 23 -33
-2 -109 -83z"/>
</g>
</svg>
